<?xml version="1.0" encoding="UTF-8"?>
<!DOCTYPE svg PUBLIC "-//W3C//DTD SVG 1.1//EN" "http://www.w3.org/Graphics/SVG/1.1/DTD/svg11.dtd">
<!-- Creator: CorelDRAW X6 -->
<svg xmlns="http://www.w3.org/2000/svg" xml:space="preserve" width="34.4618mm" height="34.4662mm" version="1.1" style="shape-rendering:geometricPrecision; text-rendering:geometricPrecision; image-rendering:optimizeQuality; fill-rule:evenodd; clip-rule:evenodd"
viewBox="0 0 626 626"
 xmlns:xlink="http://www.w3.org/1999/xlink">
 <defs>
  <style type="text/css">
   <![CDATA[
    .fil1 {fill:#FEFEFE}
    .fil0 {fill:#8E0000}
    .fil3 {fill:#2B2A29;fill-rule:nonzero}
    .fil2 {fill:#FEFEFE;fill-rule:nonzero}
   ]]>
  </style>
 </defs>
 <g id="Layer_x0020_1">
  <metadata id="CorelCorpID_0Corel-Layer"/>
  <circle class="fil0" cx="313" cy="313" r="313"/>
  <circle class="fil1" cx="313" cy="313" r="212"/>
  <path class="fil2" d="M313 63c69,0 131,28 177,73 45,45 73,108 73,177 0,69 -28,131 -73,177 -45,45 -108,73 -177,73 -69,0 -131,-28 -177,-73 -45,-45 -73,-108 -73,-177 0,-69 28,-131 73,-177 45,-45 108,-73 177,-73zm168 82c-43,-43 -102,-69 -168,-69 -65,0 -125,27 -168,69 -43,43 -69,102 -69,168 0,65 27,125 69,168 43,43 102,69 168,69 65,0 125,-27 168,-69 43,-43 69,-102 69,-168 0,-65 -27,-125 -69,-168z"/>
  <path class="fil2" d="M207 19c-56,20 -103,55 -140,101l26 20 0 0c33,-42 75,-72 125,-90l-11 -31zm103 573l311 -315 2 0c-3,-32 -13,-65 -26,-95 -11,-23 -24,-45 -40,-65l-26 21c31,38 50,83 58,132 1,4 1,7 1,11l31 -4 -311 315 -1 0 -2 0 -2 0 -2 0 -2 0 -2 0 -2 0 -2 0 -2 0 -2 0 -2 0 -2 0 -2 0 -2 0 -2 0 -1 0 -3 33 1 0 2 0 2 0 2 0 2 0 2 0 2 0 2 0 2 0 2 0 2 0 2 0 2 0 2 0 2 0 2 0 2 0c48,0 94,-10 137,-31l-15 -30c-38,19 -79,28 -122,28l-2 0 -1 0zm-293 -380c-11,33 -17,66 -17,101l0 2 0 2 0 2 0 2 0 2 0 2 0 2 0 2 0 2 0 2 0 2 0 2 0 2 0 2 0 2 0 2 0 2 0 2 0 2 0 2 0 2 0 2 0 2 0 2 0 2 0 2 0 2 0 2 0 2 0 2 0 2 0 2 0 2 0 2 0 2 0 2 0 1 32 -8 0 -1 0 -2 0 -2 0 -2 0 -2 0 -2 0 -2 0 -2 0 -2 0 -2 0 -2 0 -2 0 -2 0 -2 0 -2 0 -2 0 -2 0 -2 0 -2 0 -2 0 -2 0 -2 0 -2 0 -2 0 -2 0 -2 0 -2 0 -2 0 -2 0 -2 0 -2 0 -2 0 -2 0 -2 0 -2 0 -2 0 -2c0,-31 5,-61 15,-90l-31 -11zm32 269c31,49 77,89 129,114l14 -30c-47,-23 -88,-58 -116,-102l-28 18zm485 52c9,-9 17,-19 25,-29 28,-37 48,-77 58,-123l-32 -7c-12,51 -37,98 -74,135l24 23zm-57 -486c-28,-18 -59,-30 -90,-38 -25,-6 -50,-9 -76,-9l0 33c49,0 97,13 139,37 3,2 6,4 9,6l18 -28z"/>
  <path class="fil3" d="M338 369l-21 0 0 -80c-8,7 -17,13 -27,16l0 -19c6,-2 12,-5 18,-10 7,-5 11,-11 13,-18l17 0 0 112z"/>
 </g>
</svg>
