<?xml version="1.0" encoding="UTF-8"?>
<!DOCTYPE svg PUBLIC "-//W3C//DTD SVG 1.1//EN" "http://www.w3.org/Graphics/SVG/1.1/DTD/svg11.dtd">
<!-- Creator: CorelDRAW X6 -->
<svg xmlns="http://www.w3.org/2000/svg" xml:space="preserve" width="34.4618mm" height="34.4662mm" version="1.1" style="shape-rendering:geometricPrecision; text-rendering:geometricPrecision; image-rendering:optimizeQuality; fill-rule:evenodd; clip-rule:evenodd"
viewBox="0 0 2336 2336"
 xmlns:xlink="http://www.w3.org/1999/xlink">
 <defs>
  <style type="text/css">
   <![CDATA[
    .fil1 {fill:#FEFEFE}
    .fil0 {fill:#280042}
    .fil3 {fill:#2B2A29;fill-rule:nonzero}
    .fil2 {fill:#FEFEFE;fill-rule:nonzero}
   ]]>
  </style>
 </defs>
 <g id="Layer_x0020_1">
  <metadata id="CorelCorpID_0Corel-Layer"/>
  <circle class="fil0" cx="1168" cy="1168" r="1168"/>
  <circle class="fil1" cx="1168" cy="1168" r="789"/>
  <path class="fil2" d="M1168 236c257,0 490,104 659,273 169,169 273,402 273,659 0,257 -104,490 -273,659 -169,169 -402,273 -659,273 -257,0 -490,-104 -659,-273 -169,-169 -273,-402 -273,-659 0,-257 104,-490 273,-659 169,-169 402,-273 659,-273zm625 307c-160,-160 -381,-259 -625,-259 -244,0 -465,99 -625,259 -160,160 -259,381 -259,625 0,244 99,465 259,625 160,160 381,259 625,259 244,0 465,-99 625,-259 160,-160 259,-381 259,-625 0,-244 -99,-465 -259,-625z"/>
  <path class="fil2" d="M773 72c-207,75 -386,204 -522,378l98 76 0 0c123,-155 281,-270 467,-337l-43 -116zm384 2138l1161 -1174 8 -1c-13,-121 -48,-242 -98,-353 -40,-87 -90,-167 -149,-242l-96 78c114,143 188,311 216,492 2,13 4,26 5,40l115 -13 -1161 1174 -3 0 -7 0 -7 0 -7 0 -7 0 -7 0 -7 0 -7 0 -7 0 -7 0 -7 0 -7 -1 -7 -1 -7 -1 -7 -1 -5 -1 -13 123 5 1 7 1 7 1 7 1 7 1 7 1 7 0 7 0 7 0 7 0 7 0 7 0 7 0 8 0 7 0 8 0 8 0c179,-1 349,-39 510,-117l-54 -111c-143,70 -296,104 -456,105l-7 0 -4 0zm-1092 -1418c-42,122 -62,248 -62,376l0 8 0 8 0 7 0 7 0 7 0 7 0 7 0 7 0 7 0 7 0 7 1 7 1 7 1 7 1 7 1 7 1 7 1 7 1 7 1 7 1 7 1 7 1 7 1 7 1 7 1 7 1 7 1 7 1 7 1 7 1 7 1 7 1 7 2 7 2 7 2 7 1 4 120 -29 -1 -3 -1 -6 -1 -6 -1 -6 -1 -6 -1 -6 -1 -6 -1 -6 -1 -6 -1 -6 -1 -6 -1 -6 -1 -6 -1 -7 -1 -6 -1 -6 -1 -7 -1 -7 -1 -7 -1 -7 -1 -7 -1 -7 -1 -7 -1 -7 -1 -7 0 -7 0 -7 0 -7 0 -7 0 -7 0 -7 0 -7 0 -7 0 -7 0 -7 0 -7 0 -7c0,-115 18,-228 56,-337l-117 -40zm120 1003c117,184 286,333 483,427l53 -112c-176,-84 -327,-217 -432,-382l-104 67zm1810 195c34,-34 65,-69 94,-107 106,-137 177,-289 216,-458l-121 -27c-44,192 -139,366 -277,505l88 87zm-211 -1812c-103,-65 -219,-114 -337,-143 -93,-23 -186,-34 -282,-34l1 124c183,-1 361,47 519,137 12,7 23,13 34,21l66 -105z"/>
  <path class="fil3" d="M551 1266l79 -8c2,18 9,32 20,43 11,11 24,16 39,16 17,0 31,-7 42,-20 11,-14 17,-34 17,-61 0,-26 -6,-45 -17,-58 -11,-13 -26,-19 -45,-19 -23,0 -43,10 -62,30l-64 -9 41 -215 210 0 0 74 -150 0 -13 71c18,-9 36,-13 54,-13 35,0 65,13 90,39 25,26 37,59 37,100 0,34 -10,65 -30,92 -27,37 -64,55 -112,55 -38,0 -70,-10 -94,-31 -24,-21 -39,-48 -43,-83zm455 -310c40,0 71,14 94,43 27,34 40,90 40,169 0,79 -14,135 -41,169 -22,28 -54,43 -94,43 -40,0 -73,-16 -98,-47 -25,-31 -37,-87 -37,-166 0,-78 14,-135 41,-169 22,-28 54,-43 94,-43zm0 66c-9,0 -18,3 -25,9 -7,6 -13,17 -17,33 -5,21 -8,55 -8,104 0,49 2,82 7,101 5,18 11,30 18,36 7,6 16,9 25,9 9,0 18,-3 25,-9 7,-6 13,-17 17,-33 5,-20 8,-55 8,-104 0,-49 -2,-82 -7,-100 -5,-18 -11,-30 -18,-37 -7,-6 -16,-9 -25,-9zm322 -66c40,0 71,14 94,43 27,34 40,90 40,169 0,79 -14,135 -41,169 -22,28 -54,43 -94,43 -40,0 -73,-16 -98,-47 -25,-31 -37,-87 -37,-166 0,-78 14,-135 41,-169 22,-28 54,-43 94,-43zm0 66c-9,0 -18,3 -25,9 -7,6 -13,17 -17,33 -5,21 -8,55 -8,104 0,49 2,82 7,101 5,18 11,30 18,36 7,6 16,9 25,9 9,0 18,-3 25,-9 7,-6 13,-17 17,-33 5,-20 8,-55 8,-104 0,-49 -2,-82 -7,-100 -5,-18 -11,-30 -18,-37 -7,-6 -16,-9 -25,-9zm322 -66c40,0 71,14 94,43 27,34 40,90 40,169 0,79 -14,135 -41,169 -22,28 -54,43 -94,43 -40,0 -73,-16 -98,-47 -25,-31 -37,-87 -37,-166 0,-78 14,-135 41,-169 22,-28 54,-43 94,-43zm0 66c-9,0 -18,3 -25,9 -7,6 -13,17 -17,33 -5,21 -8,55 -8,104 0,49 2,82 7,101 5,18 11,30 18,36 7,6 16,9 25,9 9,0 18,-3 25,-9 7,-6 13,-17 17,-33 5,-20 8,-55 8,-104 0,-49 -2,-82 -7,-100 -5,-18 -11,-30 -18,-37 -7,-6 -16,-9 -25,-9z"/>
 </g>
</svg>
