<?xml version="1.0" encoding="UTF-8"?>
<!DOCTYPE svg PUBLIC "-//W3C//DTD SVG 1.1//EN" "http://www.w3.org/Graphics/SVG/1.1/DTD/svg11.dtd">
<!-- Creator: CorelDRAW X6 -->
<svg xmlns="http://www.w3.org/2000/svg" xml:space="preserve" width="34.4618mm" height="34.4662mm" version="1.1" style="shape-rendering:geometricPrecision; text-rendering:geometricPrecision; image-rendering:optimizeQuality; fill-rule:evenodd; clip-rule:evenodd"
viewBox="0 0 1096 1096"
 xmlns:xlink="http://www.w3.org/1999/xlink">
 <defs>
  <style type="text/css">
   <![CDATA[
    .fil1 {fill:#FEFEFE}
    .fil0 {fill:#7A0036}
    .fil3 {fill:#2B2A29;fill-rule:nonzero}
    .fil2 {fill:#FEFEFE;fill-rule:nonzero}
   ]]>
  </style>
 </defs>
 <g id="Layer_x0020_1">
  <metadata id="CorelCorpID_0Corel-Layer"/>
  <circle class="fil0" cx="548" cy="548" r="548"/>
  <circle class="fil1" cx="548" cy="548" r="370"/>
  <path class="fil2" d="M548 111c121,0 230,49 309,128 79,79 128,188 128,309 0,121 -49,230 -128,309 -79,79 -188,128 -309,128 -121,0 -230,-49 -309,-128 -79,-79 -128,-188 -128,-309 0,-121 49,-230 128,-309 79,-79 188,-128 309,-128zm293 144c-75,-75 -179,-122 -293,-122 -115,0 -218,46 -293,122 -75,75 -122,179 -122,293 0,115 46,218 122,293 75,75 179,122 293,122 115,0 218,-46 293,-122 75,-75 122,-179 122,-293 0,-115 -46,-218 -122,-293z"/>
  <path class="fil2" d="M363 34c-97,35 -181,96 -245,177l46 36 0 0c58,-73 132,-127 219,-158l-20 -54zm180 1003l545 -551 4 0c-6,-57 -22,-114 -46,-166 -19,-41 -42,-78 -70,-114l-45 36c54,67 88,146 101,231 1,6 2,12 2,19l54 -6 -545 551 -1 0 -3 0 -3 0 -3 0 -3 0 -3 0 -3 0 -3 0 -3 0 -3 0 -3 0 -3 0 -3 0 -3 0 -3 0 -3 0 -6 58 3 0 3 0 3 0 3 0 3 0 3 0 3 0 3 0 3 0 3 0 4 0 4 0 4 0 4 0 4 0 4 0 4 0c84,0 164,-18 239,-55l-26 -52c-67,33 -139,49 -214,49l-3 0 -2 0zm-513 -665c-20,57 -29,116 -29,177l0 4 0 4 0 4 0 4 0 4 0 4 0 4 0 3 0 3 0 3 0 3 0 3 0 3 0 3 0 3 0 3 0 3 0 3 0 3 0 3 0 3 0 3 0 3 1 3 1 3 1 3 1 3 1 3 1 3 1 3 1 3 1 3 1 3 1 3 1 3 1 3 0 2 56 -13 0 -2 -1 -3 -1 -3 -1 -3 -1 -3 -1 -3 -1 -3 -1 -3 -1 -3 -1 -3 -1 -3 0 -3 0 -3 0 -3 0 -3 0 -3 0 -3 0 -3 0 -3 0 -3 0 -3 0 -3 0 -3 0 -3 0 -3 0 -3 0 -3 0 -3 0 -3 0 -3 0 -3 0 -3 0 -3 0 -3 0 -3 0 -3 0 -3c0,-54 9,-107 26,-158l-55 -19zm56 471c55,86 134,156 227,200l25 -52c-82,-39 -154,-102 -203,-179l-49 31zm849 91c16,-16 30,-33 44,-50 50,-64 83,-135 101,-215l-57 -13c-20,90 -65,172 -130,237l41 41zm-99 -851c-48,-31 -103,-53 -158,-67 -44,-11 -88,-16 -132,-16l0 58c86,0 169,22 244,65 5,3 11,6 16,10l31 -49z"/>
  <path class="fil3" d="M334 594l37 -4c1,8 4,15 9,20 5,5 11,7 18,7 8,0 14,-3 20,-10 5,-6 8,-16 8,-29 0,-12 -3,-21 -8,-27 -5,-6 -12,-9 -21,-9 -11,0 -20,5 -29,14l-30 -4 19 -101 99 0 0 35 -70 0 -6 33c8,-4 17,-6 25,-6 17,0 31,6 42,18 12,12 17,28 17,47 0,16 -5,30 -14,43 -13,17 -30,26 -53,26 -18,0 -33,-5 -44,-14 -11,-10 -18,-23 -20,-39zm214 -146c19,0 34,7 44,20 13,16 19,42 19,79 0,37 -6,63 -19,80 -11,13 -25,20 -44,20 -19,0 -34,-7 -46,-22 -12,-15 -17,-41 -17,-78 0,-37 6,-63 19,-79 11,-13 25,-20 44,-20zm0 31c-4,0 -8,1 -12,4 -3,3 -6,8 -8,15 -3,10 -4,26 -4,49 0,23 1,39 3,47 2,9 5,14 9,17 3,3 7,4 12,4 4,0 8,-1 12,-4 3,-3 6,-8 8,-15 3,-10 4,-26 4,-49 0,-23 -1,-39 -3,-47 -2,-9 -5,-14 -9,-17 -3,-3 -7,-4 -12,-4zm151 -31c19,0 34,7 44,20 13,16 19,42 19,79 0,37 -6,63 -19,80 -11,13 -25,20 -44,20 -19,0 -34,-7 -46,-22 -12,-15 -17,-41 -17,-78 0,-37 6,-63 19,-79 11,-13 25,-20 44,-20zm0 31c-4,0 -8,1 -12,4 -3,3 -6,8 -8,15 -3,10 -4,26 -4,49 0,23 1,39 3,47 2,9 5,14 9,17 3,3 7,4 12,4 4,0 8,-1 12,-4 3,-3 6,-8 8,-15 3,-10 4,-26 4,-49 0,-23 -1,-39 -3,-47 -2,-9 -5,-14 -9,-17 -3,-3 -7,-4 -12,-4z"/>
 </g>
</svg>
