<?xml version="1.0" encoding="UTF-8"?>
<!DOCTYPE svg PUBLIC "-//W3C//DTD SVG 1.1//EN" "http://www.w3.org/Graphics/SVG/1.1/DTD/svg11.dtd">
<!-- Creator: CorelDRAW X6 -->
<svg xmlns="http://www.w3.org/2000/svg" xml:space="preserve" width="34.4618mm" height="34.4662mm" version="1.1" style="shape-rendering:geometricPrecision; text-rendering:geometricPrecision; image-rendering:optimizeQuality; fill-rule:evenodd; clip-rule:evenodd"
viewBox="0 0 3902 3902"
 xmlns:xlink="http://www.w3.org/1999/xlink">
 <defs>
  <style type="text/css">
   <![CDATA[
    .fil1 {fill:#FEFEFE}
    .fil0 {fill:#006D32}
    .fil3 {fill:#2B2A29;fill-rule:nonzero}
    .fil2 {fill:#FEFEFE;fill-rule:nonzero}
   ]]>
  </style>
 </defs>
 <g id="Layer_x0020_1">
  <metadata id="CorelCorpID_0Corel-Layer"/>
  <circle class="fil0" cx="1951" cy="1951" r="1951"/>
  <circle class="fil1" cx="1951" cy="1951" r="1318"/>
  <path class="fil2" d="M1951 395c430,0 819,174 1101,456 282,282 456,671 456,1101 0,430 -174,819 -456,1101 -282,282 -671,456 -1101,456 -430,0 -819,-174 -1101,-456 -282,-282 -456,-671 -456,-1101 0,-430 174,-819 456,-1101 282,-282 671,-456 1101,-456zm1044 512c-267,-267 -636,-432 -1044,-432 -408,0 -777,165 -1044,432 -267,267 -432,636 -432,1044 0,408 165,777 432,1044 267,267 636,432 1044,432 408,0 777,-165 1044,-432 267,-267 432,-636 432,-1044 0,-408 -165,-777 -432,-1044z"/>
  <path class="fil2" d="M1291 120c-346,126 -644,341 -872,631l163 127 0 0c205,-259 469,-451 780,-564l-71 -194zm642 3571l1939 -1960 13 -1c-22,-202 -80,-405 -164,-590 -67,-145 -150,-279 -250,-404l-161 130c191,238 314,520 361,821 3,22 6,44 9,66l192 -22 -1939 1960 -4 0 -11 0 -11 0 -11 0 -11 0 -11 0 -11 -1 -11 -1 -11 -1 -11 -1 -11 -1 -11 -1 -11 -1 -11 -1 -11 -1 -9 -1 -21 205 9 1 12 1 12 1 12 1 12 1 12 1 12 1 12 1 12 1 12 1 12 1 12 0 13 0 13 0 12 0 13 0 13 0c299,-1 583,-65 852,-196l-91 -185c-240,116 -495,174 -761,175l-11 0 -7 0zm-1825 -2369c-70,204 -103,414 -104,629l0 13 0 13 0 12 0 13 0 13 0 12 1 12 1 12 1 12 1 12 1 12 1 12 1 12 1 12 1 12 1 12 1 12 1 12 1 12 2 12 2 12 2 12 2 12 2 12 2 12 2 12 2 12 2 12 2 12 2 12 2 12 2 12 2 12 3 12 3 12 3 12 2 7 201 -48 -1 -6 -2 -11 -2 -11 -2 -11 -2 -11 -2 -11 -2 -11 -2 -11 -2 -11 -2 -11 -2 -11 -2 -11 -2 -11 -2 -11 -2 -11 -1 -11 -1 -11 -1 -11 -1 -11 -1 -11 -1 -11 -1 -11 -1 -11 -1 -11 -1 -11 -1 -11 -1 -11 -1 -11 -1 -11 -1 -11 0 -11 0 -11 0 -11 0 -11 0 -11 0 -11 0 -11c0,-192 31,-381 93,-563l-196 -66zm201 1675c195,308 479,556 807,713l88 -187c-293,-140 -547,-362 -721,-637l-174 111zm3023 325c56,-56 108,-116 157,-179 177,-230 296,-482 361,-765l-202 -45c-73,320 -231,611 -463,843l147 145zm-352 -3027c-172,-109 -367,-190 -564,-239 -155,-38 -312,-57 -472,-57l1 207c305,-1 602,78 867,230 19,11 39,23 57,34l110 -175z"/>
  <path class="fil3" d="M1779 2293l-132 0 0 -501c-48,45 -105,79 -171,101l0 -121c35,-11 72,-33 113,-64 41,-32 68,-68 83,-111l107 0 0 696zm423 -696c67,0 119,24 157,72 45,57 68,151 68,282 0,131 -23,226 -68,283 -38,47 -90,71 -157,71 -67,0 -122,-26 -163,-78 -41,-52 -62,-145 -62,-278 0,-131 23,-225 68,-282 38,-47 90,-71 157,-71zm0 110c-16,0 -30,5 -42,15 -12,10 -22,29 -29,55 -9,34 -14,92 -14,174 0,82 4,137 12,168 8,30 18,51 30,61 12,10 26,15 42,15 16,0 30,-5 42,-15 12,-10 22,-29 29,-55 9,-34 14,-92 14,-173 0,-81 -4,-137 -12,-168 -8,-30 -18,-51 -30,-61 -12,-10 -26,-15 -42,-15z"/>
 </g>
</svg>
