<?xml version="1.0" encoding="utf-8"?>
<!-- Generator: Adobe Illustrator 27.8.1, SVG Export Plug-In . SVG Version: 6.00 Build 0)  -->
<svg version="1.1" id="Layer_1" xmlns="http://www.w3.org/2000/svg" xmlns:xlink="http://www.w3.org/1999/xlink" x="0px" y="0px"
	 viewBox="0 0 97.7 97.7" style="enable-background:new 0 0 97.7 97.7;" xml:space="preserve">
<style type="text/css">
	.st0{fill-rule:evenodd;clip-rule:evenodd;fill:#03567E;}
	.st1{fill-rule:evenodd;clip-rule:evenodd;fill:#FEFEFE;}
	.st2{fill:#FEFEFE;}
	.st3{display:none;fill:#2B2A29;}
	.st4{fill:#2B2A29;}
</style>
<g id="Layer_x0020_1">
	<circle class="st0" cx="48.8" cy="48.8" r="48.8"/>
	<circle class="st1" cx="48.8" cy="48.8" r="33"/>
	<path class="st2" d="M48.8,9.9c10.8,0,20.5,4.4,27.5,11.4s11.4,16.8,11.4,27.5s-4.4,20.5-11.4,27.5S59.5,87.7,48.8,87.7
		s-20.5-4.4-27.5-11.4S9.9,59.6,9.9,48.8s4.4-20.5,11.4-27.5S38.1,9.9,48.8,9.9z M75,22.7C68.3,16,59,11.9,48.8,11.9
		c-10.3,0-19.4,4.1-26.1,10.9c-6.7,6.7-10.9,16-10.9,26.1c0,10.2,4.1,19.4,10.9,26.1c6.7,6.7,16,10.9,26.1,10.9
		c10.3,0,19.4-4.1,26.1-10.9c6.7-6.7,10.9-16,10.9-26.1C85.8,38.6,81.7,29.4,75,22.7z"/>
	<path class="st2" d="M32.4,2.7c-8.6,3.1-16.1,8.6-21.8,15.8l4.1,3.2l0,0c5.2-6.5,11.8-11.3,19.5-14.1L32.4,2.7L32.4,2.7z"/>
	<path class="st2" d="M2.3,33.8c-2.8,8.7-3,18-0.8,26.9l5-1.3l0,0c-2-8.1-1.7-16.2,0.8-24.1L2.3,33.8L2.3,33.8z"/>
	<path class="st2" d="M7.7,75.1C12.6,82.8,19.6,89,27.9,93l2.2-4.6c-7.3-3.5-13.7-9.1-18.1-16L7.7,75.1z"/>
	<path class="st2" d="M44.4,97.3c9.1,0.8,18.3-0.9,26.5-5l-2.3-4.6C61.4,91.4,53,93,44.9,92.2L44.4,97.3z"/>
	<path class="st2" d="M83.3,83.3c1.4-1.4,2.7-2.9,3.9-4.5c4.5-5.7,7.4-12,9-19.2l-5.1-1.2c-1.8,8-5.8,15.3-11.6,21.1L83.3,83.3
		L83.3,83.3z"/>
	<path class="st2" d="M97.3,43.6c-0.2-2-0.6-3.9-1-5.9c-1.6-7.1-4.7-13.3-9.2-19.1L83,21.9c5.1,6.4,8.3,14.2,9.1,22.3L97.3,43.6
		L97.3,43.6z"/>
	<path class="st2" d="M74.5,7.4c-4.3-2.8-9.2-4.7-14.1-6C56.5,0.5,52.6,0,48.7,0v5.2c7.7,0,15.1,2,21.7,5.8c0.4,0.3,1,0.5,1.4,0.9
		L74.5,7.4L74.5,7.4z"/>
	<path class="st3" d="M43.1,52.9l3.3-0.4c0.1,0.7,0.4,1.3,0.8,1.8c0.4,0.4,1,0.6,1.6,0.6c0.7,0,1.2-0.3,1.8-0.9
		c0.4-0.5,0.7-1.4,0.7-2.6c0-1.1-0.3-1.9-0.7-2.4s-1.1-0.8-1.9-0.8c-1,0-1.8,0.4-2.6,1.2L43.4,49l1.7-9h8.8v3.1h-6.2L47.2,46
		c0.7-0.4,1.5-0.5,2.2-0.5c1.5,0,2.8,0.5,3.7,1.6c1.1,1.1,1.5,2.5,1.5,4.2c0,1.4-0.4,2.7-1.2,3.8c-1.2,1.5-2.7,2.3-4.7,2.3
		c-1.6,0-2.9-0.4-3.9-1.2C43.8,55.4,43.1,54.3,43.1,52.9L43.1,52.9z"/>
</g>
<g>
	<path class="st4" d="M47.9,58.5H35.3V56l5.9-6.3c0.8-0.9,1.4-1.7,1.8-2.3s0.6-1.3,0.6-1.9c0-0.8-0.2-1.5-0.6-1.9
		c-0.4-0.5-1-0.7-1.8-0.7s-1.5,0.3-1.9,0.8c-0.5,0.6-0.7,1.3-0.7,2.2H35c0-1.1,0.3-2.1,0.8-3.1c0.5-0.9,1.3-1.6,2.3-2.2
		c1-0.5,2.1-0.8,3.3-0.8c1.9,0,3.3,0.5,4.4,1.4c1,0.9,1.6,2.2,1.6,3.8c0,0.9-0.2,1.8-0.7,2.8s-1.3,2-2.4,3.3L40,55.5h7.9V58.5z"/>
	<path class="st4" d="M50.6,49.5l1.1-9.3H62v3h-7.3l-0.5,3.9c0.9-0.5,1.8-0.7,2.8-0.7c1.7,0,3.1,0.5,4.1,1.6s1.5,2.6,1.5,4.5
		c0,1.2-0.2,2.2-0.7,3.2c-0.5,0.9-1.2,1.7-2.1,2.2c-0.9,0.5-2,0.8-3.3,0.8c-1.1,0-2.1-0.2-3.1-0.7s-1.8-1-2.4-1.8s-0.8-1.7-0.9-2.8
		h3.6c0.1,0.8,0.3,1.4,0.8,1.8c0.5,0.4,1.1,0.6,1.8,0.6c0.8,0,1.5-0.3,1.9-0.9s0.7-1.4,0.7-2.5c0-1-0.3-1.8-0.8-2.4
		c-0.5-0.6-1.2-0.8-2.2-0.8c-0.9,0-1.6,0.2-2.1,0.7l-0.4,0.3L50.6,49.5z"/>
</g>
</svg>
